inDegrees=yes
name=ik_lifting_orientations
DataType=double
version=3
OpenSimVersion=4.5-2024-01-10-34fd6af
endheader
time	pelvis_tilt	pelvis_list	pelvis_rotation	pelvis_tx	pelvis_ty	pelvis_tz	hip_flexion_r	hip_adduction_r	hip_rotation_r	knee_angle_r	knee_angle_r_beta	ankle_angle_r	subtalar_angle_r	mtp_angle_r	hip_flexion_l	hip_adduction_l	hip_rotation_l	knee_angle_l	knee_angle_l_beta	ankle_angle_l	subtalar_angle_l	mtp_angle_l	lumbar_extension	lumbar_bending	lumbar_rotation	arm_flex_r	arm_add_r	arm_rot_r	elbow_flex_r	pro_sup_r	wrist_flex_r	wrist_dev_r	arm_flex_l	arm_add_l	arm_rot_l	elbow_flex_l	pro_sup_l	wrist_flex_l	wrist_dev_l
2.14	0.2093017133792868	-6.772332122373032	-93.10332633650619	0	0.9399999998679526	0	45.10342708740078	-10.00371887130211	0	60.01215260738337	1.04740965420814	-5.000376451484537	0	0	45.10342708740078	-10.00371887130211	0	60.01215260738337	1.04740965420814	-5.000376451484537	0	0	-14.77347194520276	-4.361488865272461	-30.28031299503501	66.55137700553536	6.220449907440855	48.32350862438999	126.0351434326241	0.543477545473125	0	0	0	-13.68427526680426	0	89.46731988543485	0.543477545473125	0	0
2.15	0.08410228953643205	-6.811784003701687	-92.39926557310417	0	0.9399999998679526	0	45.10268117518042	-10.00365482109518	0	60.01206621744522	1.047408146419278	-5.000368696080514	0	0	45.10268117518042	-10.00365482109518	0	60.01206621744522	1.047408146419278	-5.000368696080514	0	0	-14.74586471867101	-4.044655184923466	-30.81680460913163	67.53292841020131	8.387832634394263	48.30389519148099	123.4030340050335	0.5404702770946812	0	0	0	-13.6900615743875	0	89.47026642694487	0.5404702770946812	0	0
2.16	0.000999701212932856	-6.821925434488238	-91.46643555435023	0	0.9399999998679526	0	45.10196109203643	-10.00359333384938	0	60.01198299337742	1.047406693885278	-5.000361266935005	0	0	45.10196109203643	-10.00359333384938	0	60.01198299337742	1.047406693885278	-5.000361266935005	0	0	-14.83196702567398	-3.725691125081656	-31.58894091021884	68.51885312745836	10.6363364461222	48.14187796801362	120.9237380202511	0.5375649001600228	0	0	0	-13.6956544825136	0	89.47311313453557	0.5375649001600228	0	0
2.17	-0.09528936365812868	-6.854860463263432	-90.81840720141322	0	0.9399999998679526	0	45.10127982590544	-10.00353576722375	0	60.0119041888804	1.04740531848734	-5.000354334922756	0	0	45.10127982590544	-10.00353576722375	0	60.0119041888804	1.04740531848734	-5.000354334922756	0	0	-14.75829218442461	-3.448899510662388	-32.12226528442307	69.34611691104131	12.83368405789822	48.10651225109572	118.3920049700126	0.5348110130507338	0	0	0	-13.70096260223676	0	89.4758114113754	0.5348110130507338	0	0
2.18	-0.1017566597832312	-6.860170983044632	-90.69912084262012	0	0.9399999998679526	0	45.10109913909074	-10.00351390665211	0	60.01188768185703	1.047405030385433	-5.000351484448119	0	0	45.10109913909074	-10.00351390665211	0	60.01188768185703	1.047405030385433	-5.000351484448119	0	0	-14.67758604806621	-3.401337125445424	-32.19868514557884	70.43780398562946	14.97219814696419	47.74211161352407	114.7645692614923	0.5341462662479838	0	0	0	-13.7021515079623	0	89.47646273489312	0.5341462662479838	0	0
2.19	-0.152173857186482	-6.81767762409012	-90.5794918772869	0	0.9399999998679526	0	45.10097534974921	-10.00349909684734	0	60.01187630612724	1.047404831841493	-5.000349559432083	0	0	45.10097534974921	-10.00349909684734	0	60.01187630612724	1.047404831841493	-5.000349559432083	0	0	-14.5124310454044	-3.319958191083312	-32.2336430203973	71.44341879671346	16.95711316157753	47.5073926735983	110.5668874158833	0.5336896326095733	0	0	0	-13.70296994320315	0	89.4769101476891	0.5336896326095733	0	0
2.2	-0.1858521919638052	-6.820965471497202	-90.39137469713995	0	0.9399999998679526	0	45.10082706457941	-10.00348143754196	0	60.01186267182273	1.047404593877988	-5.00034726830921	0	0	45.10082706457941	-10.00348143754196	0	60.01186267182273	1.047404593877988	-5.00034726830921	0	0	-14.40485698283253	-3.227271444529736	-32.27836819260484	72.5546258619199	18.66360837755467	47.22951522081255	106.1591862368572	0.5331423310653373	0	0	0	-13.70395120338847	0	89.47744639752592	0.5331423310653373	0	0
2.21	-0.2416817259523149	-6.779749210253633	-90.32286576927432	0	0.9399999998679526	0	45.10069097326372	-10.0034652066935	0	60.01185019901521	1.04740437618643	-5.000345163347199	0	0	45.10069097326372	-10.0034652066935	0	60.01185019901521	1.04740437618643	-5.000345163347199	0	0	-14.07054703137627	-3.103587246477014	-32.23439013819011	73.45868313024913	20.45718602456605	47.11438286745491	102.4963356714155	0.5326405214122091	0	0	0	-13.70485009209951	0	89.47793807409573	0.5326405214122091	0	0
2.22	-0.2548694435689075	-6.818487774811008	-90.22647297462184	0	0.9399999998679526	0	45.10052030562874	-10.00344509676387	0	60.01183447343818	1.047404101723334	-5.00034256487355	0	0	45.10052030562874	-10.00344509676387	0	60.01183447343818	1.047404101723334	-5.00034256487355	0	0	-13.84056781306842	-3.07660693075878	-32.14990833295893	74.35892487996242	21.95684124622701	46.79292565104575	98.39687438609951	0.532009624371966	0	0	0	-13.70598239234109	0	89.47855623137657	0.532009624371966	0	0
2.23	-0.2581666487522098	-6.746611907929493	-90.34095599159696	0	0.9399999998679526	0	45.10041911299487	-10.00343316159755	0	60.01182515557456	1.047403939095934	-5.000341022424426	0	0	45.10041911299487	-10.00343316159755	0	60.01182515557456	1.047403939095934	-5.000341022424426	0	0	-13.51246480820098	-3.074026830661663	-32.09225530136885	75.17988488468308	23.2585143061128	46.59414731729517	94.7003612525684	0.5316356013297601	0	0	0	-13.70665364066617	0	89.47892270173904	0.5316356013297601	0	0
2.24	-0.2285388295773821	-6.62444241743027	-90.52399455385336	0	0.9399999998679526	0	45.10030595302704	-10.00341982107713	0	60.0118147540928	1.047403757555831	-5.00033929968451	0	0	45.10030595302704	-10.00341982107713	0	60.0118147540928	1.047403757555831	-5.00033929968451	0	0	-13.27199059993436	-3.141461819875718	-31.92020785885177	76.3378181709452	24.80870687416049	46.25664634766864	90.06367218088606	0.5312175208601911	0	0	0	-13.70740361944635	0	89.47933233987455	0.5312175208601911	0	0
2.25	-0.2955054220822659	-6.427438388154063	-89.84801872261433	0	0.9399999998679526	0	45.10018401565047	-10.00340546224041	0	60.01180355504764	1.047403562095619	-5.000337446885426	0	0	45.10018401565047	-10.00340546224041	0	60.01180355504764	1.047403562095619	-5.000337446885426	0	0	-12.78482113945109	-2.906214054611928	-32.66696028403542	77.30717877393978	26.49001215568085	46.15805876944361	85.6114756821032	0.5307670582977912	0	0	0	-13.70821155394221	0	89.47977370620916	0.5307670582977912	0	0
2.26	-0.3423232728646501	-6.308793395393567	-89.25569576854122	0	0.9399999998679526	0	45.10006354217259	-10.00339131038986	0	60.01179248942737	1.047403368964112	-5.00033562275847	0	0	45.10006354217259	-10.00339131038986	0	60.01179248942737	1.047403368964112	-5.00033562275847	0	0	-12.45208259916979	-2.71033859939026	-33.23248678255178	78.42730248027797	27.92711383658792	45.93102098416208	81.10353290844562	0.530321877272229	0	0	0	-13.70901015101246	0	89.48020989765757	0.530321877272229	0	0
2.27	-0.3737661423076078	-6.151816869069597	-88.98878321337939	0	0.9399999998679526	0	45.09994890067019	-10.00337788562194	0	60.01178195743054	1.047403185146091	-5.000333894674103	0	0	45.09994890067019	-10.00337788562194	0	60.01178195743054	1.047403185146091	-5.000333894674103	0	0	-11.91250065627174	-2.602203246642726	-33.5950281762636	79.15632691734454	29.37782670270535	45.93314019386685	76.82744569166955	0.5298980978252307	0	0	0	-13.70977050532964	0	89.4806251196913	0.5298980978252307	0	0
2.28	-0.3591244187110693	-5.999064237220279	-89.05380041157679	0	0.9399999998679526	0	45.0997899655588	-10.00335926956274	0	60.01176739912218	1.047402931055676	-5.000331500361132	0	0	45.0997899655588	-10.00335926956274	0	60.01176739912218	1.047402931055676	-5.000331500361132	0	0	-11.33086064414645	-2.632838863932404	-33.64271613820191	80.08423325878088	30.76105431200977	45.79408169386716	71.61055392086234	0.5293110518761175	0	0	0	-13.71082295702153	0	89.48120031137589	0.5293110518761175	0	0
2.29	-0.3551914240852266	-5.799783918689316	-89.12503106637392	0	0.9399999998679526	0	45.09965250773928	-10.00334324248738	0	60.01175479138062	1.047402711009075	-5.000329442405587	0	0	45.09965250773928	-10.00334324248738	0	60.01175479138062	1.047402711009075	-5.000329442405587	0	0	-10.68760551507327	-2.63645345209386	-33.67824744964319	80.74915261108612	32.17047316838278	45.81915767975192	67.07026216970431	0.5288029199167213	0	0	0	-13.71173448179964	0	89.48169818258633	0.5288029199167213	0	0
2.3	-0.3650495565890382	-5.742059111415782	-88.93794008207165	0	0.9399999998679526	0	45.09959208349146	-10.00333619859954	0	60.01174924169101	1.047402614148718	-5.000328537670008	0	0	45.09959208349146	-10.00333619859954	0	60.01174924169101	1.047402614148718	-5.000328537670008	0	0	-10.32434370260253	-2.591354353414943	-33.96609240582113	81.63019232281164	33.40539604856716	45.46796285490257	62.29414398452457	0.5285794361292412	0	0	0	-13.71213561248841	0	89.48191715354773	0.5285794361292412	0	0
2.31	-0.3284769476875317	-5.627020431853918	-89.1198719976164	0	0.9399999998679526	0	45.09954505061483	-10.00333072656946	0	60.01174492006506	1.047402538722116	-5.000327835351512	0	0	45.09954505061483	-10.00333072656946	0	60.01174492006506	1.047402538722116	-5.000327835351512	0	0	-9.68907484595541	-2.641678300907156	-34.10949577837665	82.21655496918238	34.79693485143964	45.33847685400444	57.59708761433018	0.5284054295662013	0	0	0	-13.71244799875629	0	89.48208764638213	0.5284054295662013	0	0
2.32	-0.3085444426400246	-5.527628802897762	-89.30305906431376	0	0.9399999998679526	0	45.0988789743404	-10.00327755874667	0	60.01166769125219	1.047401190825054	-5.000321582843483	0	0	45.0988789743404	-10.00327755874667	0	60.01166769125219	1.047401190825054	-5.000321582843483	0	0	-9.001497042475666	-2.676560282403289	-34.0708197214368	82.66137656991903	35.79981312454154	45.11616540172861	52.51259605849729	0.5256937030033692	0	0	0	-13.71769744890359	0	89.48474461398214	0.5256937030033692	0	0
2.33	-0.2638305862519779	-5.297574907121997	-89.46698474035945	0	0.9399999998679526	0	45.09845517068084	-10.00324251774755	0	60.0116193109848	1.047400346430096	-5.000317416998921	0	0	45.09845517068084	-10.00324251774755	0	60.0116193109848	1.047400346430096	-5.000317416998921	0	0	-8.347361462121899	-2.77352411898849	-34.08139226473789	82.93970456129064	36.16721815480483	44.88486298682199	48.27536217820867	0.5239796177447426	0	0	0	-13.72100019778317	0	89.48642408607842	0.5239796177447426	0	0
2.34	-0.2429373030338891	-5.176420451173358	-89.41444028387154	0	0.9399999998679526	0	45.09839505513054	-10.00323567258071	0	60.01161376358081	1.047400249609631	-5.000316544292622	0	0	45.09839505513054	-10.00323567258071	0	60.01161376358081	1.047400249609631	-5.000316544292622	0	0	-7.80832057467276	-2.782034590276924	-33.21952630359567	83.67249538378897	36.21056051350805	44.34714694596901	43.76885996983673	0.5237562536733782	0	0	0	-13.72140247001089	0	89.48664293974046	0.5237562536733782	0	0
2.35	-0.162640570524786	-4.988880300767511	-89.85009558010491	0	0.9399999998679526	0	45.09834576745354	-10.00323002710221	0	60.01160924337637	1.047400170717181	-5.000315824051353	0	0	45.09834576745354	-10.00323002710221	0	60.01160924337637	1.047400170717181	-5.000315824051353	0	0	-7.008176802482711	-2.88569127775896	-33.40400501554696	84.01732695397503	37.83108154857935	44.24092625317024	39.55889116551655	0.523573530272922	0	0	0	-13.72173090010631	0	89.48682197339365	0.523573530272922	0	0
